<?xml version="1.0" encoding="utf-8"?>
<!-- Generator: Adobe Illustrator 23.0.3, SVG Export Plug-In . SVG Version: 6.00 Build 0)  -->
<svg version="1.1" id="Capa_1" xmlns="http://www.w3.org/2000/svg" xmlns:xlink="http://www.w3.org/1999/xlink" x="0px" y="0px"
	 viewBox="0 0 1200 1200" enable-background="new 0 0 1200 1200" xml:space="preserve">
<g>
	<path fill="#DB3332" d="M870.385,238.117c0.765-2.216,3.191-3.39,5.398-2.62l15.608,5.411l-7.21-14.861
		c-1.022-2.109-0.144-4.647,1.967-5.67c2.1-1.019,4.644-0.141,5.669,1.966l7.211,14.864l5.412-15.609
		c0.765-2.216,3.188-3.388,5.398-2.619c2.216,0.767,3.387,3.184,2.619,5.398l-5.412,15.61l14.866-7.211
		c2.108-1.015,4.644-0.141,5.669,1.966c1.022,2.109,0.144,4.647-1.967,5.67l-14.861,7.209l15.607,5.411
		c2.216,0.768,3.387,3.185,2.619,5.4c-0.608,1.754-2.252,2.855-4.009,2.855c-0.461,0-0.931-0.076-1.39-0.235l-15.609-5.412
		l7.21,14.863c1.022,2.109,0.144,4.647-1.967,5.67c-0.594,0.289-1.227,0.427-1.848,0.427c-1.575,0-3.086-0.881-3.821-2.392
		l-7.211-14.864l-5.412,15.609c-0.608,1.754-2.252,2.855-4.009,2.855c-0.461,0-0.931-0.076-1.39-0.236
		c-2.216-0.767-3.387-3.184-2.619-5.398l5.412-15.61l-14.866,7.211c-0.597,0.289-1.227,0.427-1.848,0.427
		c-1.575,0-3.086-0.881-3.821-2.392c-1.022-2.109-0.144-4.647,1.967-5.67l14.863-7.21l-15.609-5.412
		C870.789,242.748,869.617,240.331,870.385,238.117z M196.221,877.083l-15.799-4.827l14.585-7.759
		c2.069-1.101,2.854-3.67,1.753-5.74c-1.097-2.066-3.663-2.857-5.74-1.753l-14.585,7.759l4.827-15.798
		c0.685-2.242-0.577-4.614-2.818-5.299c-2.25-0.684-4.615,0.577-5.299,2.818l-4.827,15.799l-7.758-14.585
		c-1.098-2.065-3.662-2.855-5.739-1.753c-2.069,1.101-2.854,3.67-1.753,5.74l7.758,14.584l-15.799-4.827
		c-2.252-0.682-4.616,0.576-5.299,2.818c-0.685,2.242,0.577,4.614,2.818,5.299l15.8,4.827l-14.584,7.759
		c-2.069,1.101-2.854,3.67-1.753,5.74c0.762,1.434,2.231,2.252,3.75,2.252c0.671,0,1.354-0.16,1.989-0.499l14.583-7.758
		l-4.827,15.797c-0.685,2.242,0.577,4.614,2.818,5.299c0.414,0.126,0.832,0.187,1.242,0.187c1.816,0,3.499-1.177,4.057-3.004
		l4.827-15.799l7.758,14.585c0.762,1.434,2.231,2.252,3.75,2.252c0.671,0,1.354-0.16,1.989-0.499
		c2.069-1.101,2.854-3.67,1.753-5.739l-7.758-14.584l15.799,4.827c0.414,0.126,0.832,0.187,1.242,0.187
		c1.818,0,3.499-1.177,4.057-3.004C199.724,880.14,198.461,877.768,196.221,877.083z M1031.237,920.718l-22.876-8.746l22.36-9.992
		c2.138-0.956,3.097-3.466,2.141-5.606c-0.956-2.138-3.456-3.104-5.606-2.144l-22.358,9.991l8.746-22.876
		c0.837-2.189-0.26-4.643-2.448-5.478c-2.188-0.832-4.641,0.257-5.481,2.448l-8.747,22.879l-9.993-22.362
		c-0.956-2.138-3.456-3.102-5.605-2.144c-2.138,0.956-3.097,3.466-2.141,5.606l9.992,22.361l-22.875-8.745
		c-2.188-0.836-4.641,0.257-5.481,2.448c-0.837,2.189,0.26,4.643,2.448,5.478l22.876,8.746l-22.36,9.992
		c-2.138,0.956-3.097,3.466-2.141,5.605c0.705,1.578,2.252,2.514,3.876,2.514c0.577,0,1.166-0.119,1.729-0.37l22.357-9.99
		l-8.745,22.874c-0.837,2.189,0.26,4.643,2.448,5.478c0.5,0.191,1.011,0.282,1.517,0.282c1.707,0,3.318-1.039,3.964-2.73
		l8.746-22.875l9.991,22.359c0.704,1.578,2.252,2.514,3.876,2.514c0.577,0,1.166-0.119,1.729-0.37
		c2.138-0.956,3.097-3.466,2.141-5.606l-9.992-22.361l22.877,8.746c0.5,0.191,1.011,0.282,1.517,0.282
		c1.707,0,3.318-1.039,3.964-2.729C1034.522,924.007,1033.425,921.554,1031.237,920.718z M176.41,226.553l13.207,3.331
		l-11.694,6.983c-2.013,1.202-2.669,3.807-1.468,5.82c0.796,1.33,2.203,2.068,3.648,2.068c0.74,0,1.49-0.193,2.171-0.6l11.694-6.983
		l-3.332,13.208c-0.573,2.272,0.805,4.579,3.078,5.152c0.348,0.087,0.696,0.13,1.04,0.13c1.898,0,3.626-1.283,4.112-3.207
		l3.332-13.208l6.984,11.696c0.796,1.33,2.203,2.068,3.648,2.068c0.74,0,1.49-0.193,2.171-0.6c2.013-1.202,2.669-3.807,1.468-5.82
		l-6.984-11.695l13.208,3.331c0.348,0.087,0.696,0.13,1.04,0.13c1.898,0,3.626-1.283,4.112-3.207
		c0.573-2.272-0.805-4.579-3.078-5.152l-13.207-3.331l11.694-6.983c2.013-1.202,2.669-3.807,1.468-5.82
		c-1.203-2.013-3.808-2.666-5.82-1.468l-11.696,6.984l3.332-13.209c0.573-2.272-0.805-4.579-3.078-5.152
		c-2.272-0.575-4.579,0.804-5.152,3.078l-3.331,13.207l-6.983-11.694c-1.202-2.011-3.811-2.667-5.82-1.468
		c-2.013,1.202-2.669,3.807-1.468,5.82l6.984,11.695l-13.208-3.331c-2.275-0.575-4.578,0.804-5.152,3.078
		C172.759,223.673,174.137,225.98,176.41,226.553z M1081.471,761.745h-13.622l9.633-9.633c1.658-1.658,1.658-4.344,0-6.001
		c-1.658-1.658-4.343-1.658-6,0l-9.634,9.634v-13.623c0-2.344-1.901-4.244-4.244-4.244c-2.343,0-4.243,1.899-4.243,4.244v13.62
		l-9.631-9.631c-1.658-1.658-4.343-1.658-6.001,0c-1.658,1.656-1.658,4.343,0,6.001l9.633,9.633h-13.625
		c-2.343,0-4.244,1.899-4.244,4.244c0,2.344,1.901,4.243,4.244,4.243h13.624l-9.632,9.632c-1.658,1.658-1.658,4.344,0,6.001
		c0.829,0.829,1.915,1.243,3,1.243c1.086,0,2.172-0.414,3-1.243l9.631-9.631v13.622c0,2.344,1.901,4.243,4.243,4.243
		c2.343,0,4.244-1.899,4.244-4.243V776.23l9.634,9.634c0.829,0.829,1.915,1.243,3,1.243s2.172-0.414,3-1.243
		c1.658-1.656,1.658-4.343,0-6.001l-9.632-9.632h13.621c2.343,0,4.244-1.899,4.244-4.243
		C1085.715,763.644,1083.814,761.745,1081.471,761.745z M1145.756,883.472h-13.625l9.633-9.634c1.658-1.658,1.658-4.344,0-6.001
		c-1.658-1.658-4.343-1.658-6.001,0l-9.631,9.631v-13.62c0-2.344-1.901-4.243-4.243-4.243s-4.244,1.899-4.244,4.243v13.623
		l-9.634-9.634c-1.658-1.658-4.343-1.658-6,0c-1.658,1.656-1.658,4.343,0,6.001l9.633,9.634h-13.623
		c-2.343,0-4.244,1.899-4.244,4.243c0,2.344,1.901,4.244,4.244,4.244h13.621l-9.632,9.632c-1.658,1.658-1.658,4.344,0,6.001
		c0.829,0.829,1.915,1.243,3,1.243s2.172-0.414,3-1.243l9.634-9.634v13.625c0,2.344,1.901,4.244,4.244,4.244
		s4.243-1.899,4.243-4.244V897.96l9.631,9.631c0.829,0.829,1.915,1.243,3,1.243c1.086,0,2.172-0.414,3-1.243
		c1.658-1.656,1.658-4.343,0-6.001l-9.632-9.632h13.624c2.343,0,4.244-1.899,4.244-4.244
		C1150,885.371,1148.099,883.472,1145.756,883.472z M261.545,194.21c0.651,1.685,2.257,2.718,3.962,2.718
		c0.507,0,1.022-0.093,1.525-0.285l12.71-4.898l-5.525,12.451c-0.95,2.142,0.015,4.65,2.158,5.6
		c0.559,0.249,1.144,0.366,1.718,0.366c1.627,0,3.18-0.941,3.882-2.524l5.525-12.451l4.898,12.71
		c0.651,1.685,2.257,2.718,3.962,2.718c0.507,0,1.022-0.093,1.525-0.285c2.187-0.843,3.277-3.299,2.434-5.487l-4.898-12.71
		l12.451,5.524c0.559,0.249,1.144,0.366,1.718,0.366c1.627,0,3.18-0.941,3.882-2.524c0.95-2.142-0.015-4.65-2.158-5.6l-12.451-5.525
		l12.711-4.898c2.187-0.843,3.277-3.299,2.434-5.487c-0.845-2.187-3.296-3.274-5.487-2.434l-12.71,4.897l5.524-12.449
		c0.95-2.142-0.015-4.65-2.158-5.6c-2.145-0.955-4.652,0.015-5.6,2.158l-5.524,12.45l-4.898-12.711
		c-0.844-2.185-3.296-3.275-5.487-2.434c-2.187,0.843-3.277,3.299-2.434,5.487l4.898,12.71l-12.451-5.524
		c-2.148-0.953-4.652,0.017-5.6,2.158c-0.95,2.142,0.015,4.65,2.158,5.6l12.451,5.525l-12.711,4.898
		C261.792,189.566,260.702,192.022,261.545,194.21z M368.533,1031.189l-13.217-3.292l11.674-7.019
		c2.008-1.207,2.658-3.815,1.45-5.824c-1.21-2.008-3.813-2.66-5.824-1.45l-11.674,7.019l3.292-13.218
		c0.566-2.274-0.818-4.576-3.093-5.143c-2.281-0.565-4.576,0.818-5.143,3.093l-3.292,13.217l-7.019-11.676
		c-1.209-2.01-3.811-2.659-5.824-1.45c-2.008,1.207-2.658,3.815-1.45,5.824l7.019,11.675l-13.219-3.292
		c-2.278-0.569-4.578,0.82-5.143,3.093c-0.566,2.274,0.818,4.576,3.093,5.143l13.217,3.292l-11.674,7.019
		c-2.008,1.207-2.658,3.815-1.45,5.824c0.797,1.325,2.2,2.057,3.641,2.057c0.745,0,1.497-0.195,2.183-0.606l11.674-7.019
		l-3.292,13.218c-0.566,2.274,0.818,4.576,3.093,5.143c0.344,0.086,0.689,0.127,1.028,0.127c1.904,0,3.634-1.289,4.115-3.22
		l3.292-13.217l7.018,11.674c0.797,1.325,2.2,2.057,3.641,2.057c0.745,0,1.497-0.195,2.183-0.606
		c2.008-1.207,2.658-3.815,1.45-5.824l-7.018-11.674l13.219,3.292c0.344,0.086,0.689,0.127,1.028,0.127
		c1.903,0,3.634-1.29,4.115-3.22C372.192,1034.058,370.808,1031.755,368.533,1031.189z M800.428,174.957l20.251,4.512l-17.51,11.129
		c-1.978,1.257-2.561,3.88-1.304,5.858c0.807,1.272,2.18,1.967,3.583,1.967c0.779,0,1.566-0.214,2.274-0.662l17.51-11.129
		l-4.512,20.25c-0.511,2.288,0.931,4.556,3.219,5.064c0.309,0.07,0.622,0.104,0.926,0.104c1.945,0,3.699-1.345,4.138-3.322
		l4.512-20.253l11.13,17.511c0.807,1.272,2.18,1.967,3.583,1.967c0.779,0,1.566-0.214,2.274-0.662
		c1.978-1.258,2.561-3.88,1.304-5.858l-11.129-17.509l20.251,4.512c0.309,0.07,0.622,0.104,0.926,0.104
		c1.945,0,3.699-1.345,4.138-3.322c0.511-2.288-0.931-4.556-3.219-5.064l-20.25-4.512l17.51-11.129
		c1.978-1.257,2.561-3.88,1.304-5.858c-1.254-1.978-3.873-2.558-5.857-1.305l-17.51,11.129l4.512-20.25
		c0.511-2.288-0.931-4.556-3.219-5.064c-2.29-0.524-4.556,0.934-5.064,3.219l-4.512,20.252l-11.13-17.511
		c-1.254-1.978-3.873-2.56-5.857-1.305c-1.978,1.257-2.561,3.88-1.304,5.858l11.13,17.511l-20.252-4.512
		c-2.293-0.524-4.556,0.934-5.064,3.219C796.699,172.181,798.141,174.449,800.428,174.957z"/>
	<path fill="#212AB0" d="M536.292,495.602c-13.59-56.561-47.364-108.324-90.541-147.248c-43.43-39.09-97.052-67.032-154.066-78.807
		c-2.943-0.601-4.842-3.474-4.241-6.417c0.601-2.943,3.474-4.842,6.417-4.241c0.015,0.003,0.071,0.015,0.086,0.018
		c58.893,13.022,113.514,42.535,157.501,83.211c43.586,40.305,77.597,93.947,90.703,152.121c0.365,1.621-0.653,3.231-2.274,3.596
		C538.272,498.198,536.676,497.198,536.292,495.602z M519.49,326.507c-27.861-49.892-66.879-99.211-119.805-123.86
		c-0.021-0.009-0.069-0.032-0.09-0.041c-2.944-1.311-6.394,0.013-7.706,2.957c-1.311,2.945,0.013,6.395,3.011,7.73
		c50.779,22.612,89.44,70.367,116.881,117.594c28.065,48.301,48.948,104.141,53.064,160.176c0.122,1.645,1.541,2.894,3.194,2.8
		c1.671-0.095,2.947-1.527,2.852-3.197C567.644,433.843,547.245,376.209,519.49,326.507z M596.219,494.244
		c1.879,0.022,3.42-1.484,3.442-3.415c0.922-79.924,24.489-167.92,68.67-234.942c14.941-22.665,33.262-43.34,55.81-57.528
		c0.028-0.018,0.056-0.036,0.084-0.054c7.229-4.752-0.091-15.998-7.372-11.203c-24.432,16.09-43.296,38.517-58.413,62.427
		c-43.742,69.762-66.306,159.225-65.584,241.342C592.872,492.716,594.363,494.223,596.219,494.244z M700.705,348.193
		c35.11-40.742,79.37-74.079,129.724-91.432c2.687-0.926,5.389-1.805,8.107-2.635c7.56-2.308,3.902-14.195-3.763-11.734
		c-76.316,24.501-138.654,84.086-178.725,152.185c-18.292,31.086-32.736,65.584-40.905,101.111c-0.444,1.969,0.77,3.953,2.74,4.428
		c1.988,0.479,3.988-0.743,4.467-2.73C635.438,443.152,664.193,390.562,700.705,348.193z M847.354,408.212
		c-34.481,8.812-68.127,20.935-99.684,36.465c-31.652,15.577-62.453,35.567-86.381,61.727c-1.197,1.31-1.122,3.343,0.177,4.559
		c1.308,1.225,3.362,1.157,4.616-0.183c23.573-25.179,54.032-44.372,84.956-59.177c66.389-31.783,139.311-47.167,212.577-50.281
		c31.068-1.321,62.466,0.619,93.038,6.395c7.237,1.367,9.185-9.89,1.978-11.165C989.493,384.322,915.342,390.837,847.354,408.212z
		 M1120.15,608.456c2.204-3.141,1.444-7.474-1.697-9.677c-61.5-43.148-137.29-66.759-211.69-75.69
		c-74.012-8.884-152.328-3.712-222.595,22.302c-1.211,0.449-1.848,1.788-1.423,3.014c0.431,1.242,1.788,1.9,3.046,1.463
		c69.874-24.26,146.94-27.62,219.78-17.528c71.881,9.959,145.494,34.296,204.749,77.703l0.065,0.048
		c0.029,0.021,0.058,0.042,0.087,0.062C1113.614,612.357,1117.946,611.597,1120.15,608.456z M1008.082,828.771
		c0.029,0.064,0.06,0.128,0.091,0.191c2.1,4.277,7.269,6.041,11.546,3.941c4.277-2.1,6.041-7.269,3.941-11.546
		c-33.08-67.369-83.675-125.566-145.145-167.562c-61.012-41.683-133.524-67.181-207.535-72.888c-1.192-0.084-2.26,0.794-2.38,1.992
		c-0.123,1.22,0.767,2.309,1.987,2.432c72.009,7.254,142.901,34.564,201.676,77.328
		C930.968,705.31,978.212,763.178,1008.082,828.771z M827.48,726.298c-42.004-52.327-94.796-96.008-154.515-126.361
		c-2.06-1.046-4.59-0.251-5.674,1.799c-1.096,2.072-0.304,4.64,1.768,5.735c58.098,30.725,109.062,74.354,149.225,126.089
		c40.174,51.728,69.675,111.739,84.931,175.169c0.007,0.027,0.023,0.095,0.03,0.122c1.033,3.997,5.11,6.401,9.108,5.368
		s6.401-5.11,5.368-9.108C900.872,839.776,869.489,778.618,827.48,726.298z M610.729,706.711
		c-4.248-34.653-10.252-69.078-18.36-103.033c-0.419-1.734-2.151-2.833-3.903-2.451c-1.776,0.388-2.901,2.141-2.513,3.917
		c14.661,67.125,20.891,137.121,21.629,206.192c0.694,69.268-3.385,138.572-8.346,207.869c-0.003,0.041-0.005,0.082-0.007,0.123
		c-0.214,4.236,3.047,7.844,7.283,8.057c4.236,0.214,7.844-3.047,8.057-7.283c3.507-69.512,6.147-139.226,3.98-209.001
		C617.467,776.239,614.976,741.361,610.729,706.711z M502.468,638.73c1.276-1.108,1.443-3.037,0.362-4.348
		c-1.098-1.333-3.068-1.523-4.401-0.425c-24.813,20.444-47.687,43.251-68.355,67.941c-20.659,24.696-39.112,51.301-54.852,79.5
		c-31.486,56.405-51.973,120.026-56.351,184.578c-0.003,0.048-0.008,0.134-0.01,0.182c-0.187,4.242,3.101,7.832,7.343,8.019
		c4.242,0.187,7.832-3.1,8.02-7.369c2.771-62.95,21.122-124.672,50.503-180.252C414.252,730.704,454.487,680.315,502.468,638.73z
		 M440.944,643.074c30.211-19.982,62.578-36.724,96.119-49.88c1.613-0.634,2.434-2.448,1.828-4.079
		c-0.613-1.65-2.448-2.491-4.098-1.878c-68.754,25.548-132.569,65.616-184.235,117.756
		c-51.929,52.405-91.383,116.903-115.898,186.38c-0.01,0.029-0.035,0.1-0.044,0.129c-1.239,3.74,0.788,7.777,4.528,9.016
		c3.74,1.24,7.777-0.787,9.016-4.527c22.546-68.024,60.287-131.973,109.795-183.801
		C382.824,686.158,410.811,663.004,440.944,643.074z M509.522,572.226c1.748-0.158,3.024-1.702,2.866-3.45
		c-0.158-1.748-1.703-3.037-3.451-2.879c-79.451,7.155-156.445,35.936-222.403,80.588c-65.973,44.63-121.39,105.451-157.658,176.72
		l-0.009,0.019c-1.053,2.093-0.21,4.645,1.883,5.698c2.094,1.053,4.645,0.21,5.698-1.883
		c35.25-70.055,89.469-130.165,154.259-174.416C355.478,608.344,431.253,579.625,509.522,572.226z M262.512,532.17
		c75.101-17.578,155.973-15.541,229.374,8.568c1.375,0.45,2.865-0.281,3.343-1.652c0.483-1.388-0.249-2.905-1.637-3.388
		c-74.375-25.912-156.391-29.355-233.172-12.851c-77.175,16.589-150.901,53.782-208.267,108.199
		c-0.021,0.021-0.071,0.068-0.092,0.089c-2.715,2.671-2.751,7.037-0.081,9.752c2.67,2.715,7.036,2.751,9.751,0.081
		C116.566,587.028,187.853,549.644,262.512,532.17z M112.536,429.75c56.499-20.717,118.93-25.195,178.674-14.558
		c59.746,10.604,117.266,36.377,163.948,75.937c1.084,0.916,2.711,0.813,3.666-0.25c0.973-1.083,0.883-2.75-0.201-3.722
		c-46.273-41.559-104.261-69.681-165.409-82.357c-61.139-12.698-125.974-10.085-185.924,9.946c-0.061,0.021-0.166,0.057-0.227,0.079
		c-4.121,1.511-6.237,6.078-4.726,10.199C103.848,429.145,108.414,431.261,112.536,429.75z M860.076,329.226
		c-2.156,0.756-3.35,3.1-2.654,5.293c0.709,2.234,3.094,3.471,5.328,2.762c16.645-5.236,33.604-9.416,50.738-12.07
		c17.12-2.639,34.453-3.762,51.487-2.476l0.047,0.003c0.048,0.003,0.095,0.006,0.143,0.008c3.194,0.147,5.902-2.323,6.049-5.518
		c0.147-3.194-2.323-5.902-5.518-6.049c-18.198-0.836-36.254,0.897-53.888,4.141C894.166,318.584,876.911,323.385,860.076,329.226z
		 M719.776,414.585c31.416-24.355,66.605-44.161,102.641-60.06c0.035-0.016,0.07-0.032,0.105-0.048
		c2.827-1.319,4.05-4.68,2.731-7.508c-1.319-2.827-4.68-4.05-7.508-2.731c-54.148,25.26-106.904,60.517-146.954,105.902
		c-13.165,14.918-24.671,31.165-33.73,48.904c-0.655,1.283-0.932,3.549,0.224,4.408c2.398,1.782,3.867-0.849,5.076-3.018
		C661.066,466.885,689.61,437.971,719.776,414.585z M453.411,419.139c-29.32-25.652-62.561-46.66-97.861-63.264
		c-0.051-0.023-0.126-0.058-0.178-0.08c-3.119-1.348-6.741,0.088-8.089,3.207c-1.348,3.119,0.087,6.741,3.207,8.089l0.041,0.018
		c34.803,15.043,67.879,34.49,97.283,58.614c14.677,12.069,28.416,25.321,40.646,39.861c12.206,14.536,22.94,30.384,30.994,47.561
		l0.019,0.04c0.569,1.21,1.999,1.758,3.236,1.225c1.263-0.544,1.846-2.008,1.302-3.271c-7.727-17.945-18.233-34.558-30.27-49.854
		C481.68,445.985,468.045,431.973,453.411,419.139z M188.265,318.595c-0.064-0.002-0.152-0.005-0.217-0.005
		c-3.017-0.007-5.468,2.433-5.475,5.449c-0.007,3.017,2.433,5.468,5.449,5.475c38.114,0.089,76.311,5.56,113.203,15.987
		c1.631,0.458,3.355-0.446,3.885-2.072c0.543-1.668-0.368-3.46-2.036-4.003C266.088,327.378,227.371,320.231,188.265,318.595z
		 M823.566,471.629c85.461-12.696,164.095,4.022,164.132,4.03c8.384,1.916,11.515-11.202,2.989-13.139
		c-81.554-18.528-172.844-8.625-249.709,24.581c-25.889,11.223-50.63,25.567-72.118,44.074c-1.217,1.05-1.382,2.888-0.355,4.136
		c1.042,1.266,2.913,1.448,4.203,0.386c21.302-17.525,45.751-30.986,71.299-41.384C769.528,483.96,796.181,475.697,823.566,471.629z
		 M200.45,623.587c-0.039,0.031-0.106,0.083-0.144,0.114c-2.92,2.376-3.361,6.67-0.985,9.591c2.376,2.92,6.67,3.362,9.591,0.985
		c63.518-51.684,148.125-77.645,230.557-70.11c1.901,0.172,3.61-1.2,3.834-3.107c0.228-1.939-1.159-3.695-3.098-3.923
		C356.101,547.249,268.239,571.366,200.45,623.587z M566.228,605.968c0.84-1.034,0.706-2.555-0.313-3.425
		c-1.035-0.884-2.59-0.762-3.474,0.273c-46.259,54.148-80.67,118.155-104.048,185.244c-23.512,67.475-35.111,138.929-36.494,210.271
		c-0.001,0.048-0.002,0.132-0.001,0.18c0.019,4.178,3.421,7.55,7.599,7.531c4.178-0.019,7.55-3.421,7.531-7.599
		c0,0-0.001-0.113-0.001-0.113c-0.319-69.897,9.441-140.525,30.876-207.088C489.351,724.643,522.003,660.333,566.228,605.968z
		 M678.366,568.562c75.713-10.909,155.017,3.18,226.42,30.048c70.651,26.585,139.949,67.103,193.601,121.167l0.087,0.088
		c0.024,0.024,0.049,0.049,0.074,0.073c3,2.912,7.793,2.84,10.705-0.16c2.912-3,2.84-7.793-0.16-10.705
		c-56.083-54.426-127.286-94.488-200.59-120.597c-73.303-26.109-153.765-38.689-231.106-26.289
		c-1.729,0.283-2.932,1.902-2.681,3.644C674.969,567.593,676.604,568.816,678.366,568.562z M526.731,187.187
		c-1.658-3.11-5.524-4.288-8.634-2.63c-3.111,1.658-4.288,5.524-2.63,8.635c36.548,68.557,56.631,146.062,57.905,224.086
		c0.039,2.306,1.919,4.171,4.236,4.175c2.344,0.004,4.247-1.893,4.251-4.236c0.138-79.398-18.846-158.888-55.073-229.926
		C526.772,187.266,526.744,187.211,526.731,187.187z M597.849,309.995c2.341,0.128,4.342-1.666,4.47-4.006
		c1.755-31.701,9.178-62.97,21.723-91.867c0.032-0.075,0.075-0.18,0.105-0.257c1.248-3.259-0.383-6.912-3.642-8.16
		c-3.259-1.248-6.912,0.383-8.16,3.642c-11.832,30.815-18.099,63.599-18.508,96.358C593.813,307.961,595.572,309.87,597.849,309.995
		z M111.228,524.191c72.812-47.659,168.296-60.162,251.631-32.292c2.185,0.729,4.566-0.419,5.344-2.599
		c0.787-2.208-0.364-4.635-2.571-5.423c-42.627-15.205-88.78-20.132-133.848-15.22c-45.068,4.905-89.274,19.666-127.989,43.914
		c-0.029,0.018-0.092,0.058-0.12,0.077c-3.187,2.086-4.08,6.361-1.994,9.548C103.766,525.384,108.041,526.277,111.228,524.191z
		 M822.593,852.338c-13.879-32.867-30.201-64.763-48.595-95.009c-36.706-60.358-83.108-117.08-140.321-159.041
		c-1.402-1.026-3.379-0.757-4.449,0.626c-1.088,1.406-0.83,3.427,0.587,4.524c54.863,42.456,99.402,99.696,133.937,159.933
		c34.377,59.96,60.806,126.485,76.043,194.433c0.014,0.059,0.028,0.118,0.043,0.178c1.169,4.647,5.883,7.467,10.531,6.298
		c4.647-1.169,7.467-5.883,6.298-10.53C848.034,919.423,836.549,885.389,822.593,852.338z M630.648,636.768
		c-1.374,0.646-1.965,2.283-1.32,3.658c46.284,98.557,72.048,206.345,75.441,314.527c0.002,0.06,0.006,0.156,0.01,0.216
		c0.249,4.112,3.784,7.245,7.896,6.996c4.112-0.249,7.244-3.784,6.996-7.896c-6.628-110.09-35.964-218.389-85.401-316.252
		C633.602,636.696,631.997,636.134,630.648,636.768z M566.23,650.402c-1.799-0.69-3.817,0.209-4.507,2.008
		c-19.811,51.642-29.279,107.899-36.764,162.488c-7.504,54.727-13.943,111.41-9.915,166.683c0.002,0.021,0.006,0.074,0.008,0.095
		c0.296,3.335,3.239,5.799,6.575,5.503s5.799-3.239,5.503-6.575l-0.018-0.199c-4.793-54.353,0.766-110.284,7.319-164.272
		c6.493-53.499,15.046-109.97,33.797-161.196l0.03-0.082C568.91,653.07,568.011,651.085,566.23,650.402z M166.967,662.346
		c1.69-1.417,2.036-3.932,0.724-5.749c-1.373-1.901-4.028-2.328-5.928-0.955c-28.743,20.767-55.078,45.106-78.207,72.375
		c-0.113,0.135-0.243,0.297-0.349,0.441c-2.59,3.525-1.832,8.482,1.692,11.071c3.525,2.59,8.482,1.832,11.071-1.693
		C116.385,710.053,140.267,684.625,166.967,662.346z M1010.963,475.614c-0.581,2.27,0.788,4.582,3.102,5.175
		c20.336,5.207,39.917,13.473,58.027,23.979c16.934,9.824,35.173,22.903,46.08,39.745l0.126,0.194
		c0.041,0.063,0.084,0.126,0.128,0.188c2.113,3.004,6.261,3.726,9.264,1.613c3.004-2.113,3.726-6.261,1.613-9.264
		c-12.828-18.236-32.505-31.605-51.897-41.982c-19.383-10.292-40.004-18.098-61.432-22.742
		C1013.756,472.041,1011.531,473.397,1010.963,475.614z M649.685,342.412c-0.815,2.174,0.268,4.609,2.438,5.45
		c2.185,0.847,4.643-0.237,5.49-2.423c22.225-57.254,67.957-104.917,123.943-129.463c0.01-0.004,0.046-0.021,0.056-0.025
		c2.657-1.202,3.837-4.331,2.635-6.988c-1.202-2.657-4.331-3.837-6.988-2.635C718.915,232.719,672.123,282.741,649.685,342.412z
		 M144.318,378.947c41.641-9.511,85.482-10.092,127.643-1.571c1.823,0.366,3.628-0.776,4.058-2.599
		c0.439-1.861-0.714-3.726-2.576-4.165c-42.832-10.099-87.933-11.017-131.424-2.549c-0.05,0.01-0.128,0.026-0.179,0.038
		c-2.995,0.684-4.869,3.667-4.185,6.662C138.34,377.758,141.323,379.632,144.318,378.947z M728.157,779.116
		c-2.116,1.009-3.013,3.542-2.004,5.658c24.961,52.393,39.312,109.588,42.107,167.114c0.004,0.084,0.012,0.204,0.019,0.288
		c0.361,4.151,4.019,7.223,8.169,6.862c4.151-0.361,7.223-4.019,6.862-8.169c-5.128-59.389-22.133-117.464-49.566-169.889
		C732.689,778.971,730.222,778.131,728.157,779.116z"/>
</g>
</svg>
